<svg width="100" height="53" viewBox="0 0 100 53" fill="none" xmlns="http://www.w3.org/2000/svg">
<path d="M16.4671 52.6366C7.38525 52.6366 0 47.2075 0 40.5312C0 33.8549 7.38525 28.4258 16.4671 28.4258C25.549 28.4258 32.9342 33.8549 32.9342 40.5312C32.9342 47.2442 25.549 52.6366 16.4671 52.6366Z" fill="white"/>
<path d="M16.4671 52.6364C7.38525 52.6364 0 47.2073 0 40.531C0 33.8547 7.38525 28.4257 16.4671 28.4257C25.549 28.4257 32.9342 33.8547 32.9342 40.531C32.9342 47.244 25.549 52.6364 16.4671 52.6364Z" fill="white"/>
<path d="M55.3895 2.0505L37.5251 23.51C37.0261 24.1337 37.575 24.904 38.5232 24.904H56.3875H74.2518C75.1999 24.904 75.7488 24.097 75.2498 23.51L57.3855 2.0505C56.8865 1.50026 55.8386 1.50026 55.3895 2.0505Z" fill="white"/>
<path d="M32.5847 5.68223L26.1476 0.950125C25.6985 0.619978 24.9001 0.619978 24.451 0.950125L17.3651 6.15911C16.916 6.48925 16.1176 6.48925 15.6685 6.15911L8.58264 0.950125C8.13353 0.619978 7.33513 0.619978 6.88603 0.950125L0.448888 5.68223C-0.000215217 6.01237 -0.000215217 6.59931 0.448888 6.92945L7.53473 12.1384C7.98383 12.4686 7.98383 13.0555 7.53473 13.3857L0.448888 18.5946C-0.000215217 18.9248 -0.000215217 19.5117 0.448888 19.8419L6.88603 24.574C7.33513 24.9041 8.13353 24.9041 8.58264 24.574L15.6685 19.365C16.1176 19.0348 16.916 19.0348 17.3651 19.365L24.451 24.574C24.9001 24.9041 25.6985 24.9041 26.1476 24.574L32.5847 19.8419C33.0338 19.5117 33.0338 18.9248 32.5847 18.5946L25.4988 13.3857C25.0497 13.0555 25.0497 12.4686 25.4988 12.1384L32.5847 6.92945C33.0837 6.59931 33.0837 6.04906 32.5847 5.68223Z" fill="white"/>
<path d="M40.6685 36.7892V38.3299H44.3112V39.3937H40.6685V41.4846H38.8721V35.7254H44.7603V36.7892H40.6685Z" fill="white"/>
<path d="M47.2058 40.8977C46.607 40.4575 46.2577 39.7972 46.2577 38.9535V35.7254H48.0541V38.8801C48.0541 39.9073 48.6529 40.4208 49.8006 40.4208C50.3495 40.4208 50.7986 40.3108 51.098 40.054C51.3974 39.7972 51.5471 39.4304 51.5471 38.8801V35.7254H53.3435V38.9535C53.3435 39.7972 53.0441 40.4575 52.3954 40.8977C51.7966 41.3379 50.8984 41.5947 49.8006 41.5947C48.7028 41.5947 47.8046 41.3379 47.2058 40.8977Z" fill="white"/>
<path d="M56.9361 36.8259H54.441V35.7254H61.2275V36.8259H58.7325V41.4846H56.9361V36.8259Z" fill="white"/>
<path d="M63.2733 40.8977C62.6745 40.4575 62.3252 39.7972 62.3252 38.9535V35.7254H64.1216V38.8801C64.1216 39.9073 64.7204 40.4208 65.8681 40.4208C66.417 40.4208 66.8661 40.3108 67.1655 40.054C67.4649 39.7972 67.6146 39.4304 67.6146 38.8801V35.7254H69.411V38.9535C69.411 39.7972 69.1116 40.4575 68.4629 40.8977C67.8641 41.3379 66.9659 41.5947 65.8681 41.5947C64.7703 41.5947 63.922 41.3379 63.2733 40.8977Z" fill="white"/>
<path d="M76.497 41.4849L75 39.8709H74.9002H73.3034V41.4849H71.507V35.7624H74.9002C75.5988 35.7624 76.1976 35.8358 76.6966 36.0192C77.1956 36.2026 77.5948 36.4227 77.8942 36.7528C78.1437 37.0463 78.2935 37.4498 78.2935 37.8533C78.2935 38.2935 78.1437 38.6604 77.8942 38.9538C77.5948 39.2473 77.1956 39.5041 76.6966 39.6508L78.4431 41.4849H76.497ZM76.0479 37.083C75.7485 36.8996 75.3493 36.8262 74.8004 36.8262H73.3034V38.8438H74.8004C75.3493 38.8438 75.7485 38.7704 76.0479 38.587C76.3473 38.4036 76.4471 38.1835 76.4471 37.8533C76.497 37.4865 76.3473 37.2664 76.0479 37.083Z" fill="white"/>
<path d="M86.1279 40.4208V41.4846H80.09V35.7254H85.9782V36.7892H81.8864V38.0364H85.4792V39.1002H81.8864V40.4208H86.1279Z" fill="white"/>
<path d="M44.012 50.8757H40.3693L39.6707 52.1229H37.8243L41.3174 46.4003H43.1138L46.6068 52.1229H44.7106L44.012 50.8757ZM43.4631 49.8852L42.2156 47.6842L40.9681 49.8852H43.4631Z" fill="white"/>
<path d="M49.2017 51.8293C48.553 51.5725 48.054 51.2057 47.7047 50.7655C47.3554 50.3253 47.1558 49.8117 47.1558 49.2248C47.1558 48.6746 47.3554 48.161 47.7047 47.6841C48.054 47.2439 48.6029 46.8771 49.2017 46.6203C49.8504 46.3635 50.549 46.2535 51.3474 46.2535C52.046 46.2535 52.6448 46.3268 53.1937 46.5103C53.7426 46.6937 54.1917 46.9505 54.5909 47.2806L53.4432 48.0509C52.8943 47.6107 52.2456 47.3907 51.4971 47.3907C50.9981 47.3907 50.5989 47.464 50.1997 47.6108C49.8005 47.7575 49.5011 47.9776 49.3015 48.271C49.1019 48.5645 49.0021 48.858 49.0021 49.2248C49.0021 49.5916 49.1019 49.8851 49.3015 50.1786C49.5011 50.472 49.8005 50.6921 50.1997 50.8389C50.5989 50.9856 50.9981 51.059 51.4971 51.059C52.2955 51.059 52.9442 50.8389 53.4432 50.362L54.5909 51.1323C54.2416 51.4625 53.7426 51.7192 53.1937 51.9027C52.6448 52.0861 52.046 52.1594 51.3474 52.1594C50.5989 52.1961 49.8504 52.0861 49.2017 51.8293Z" fill="white"/>
<path d="M61.1277 50.8757H57.485L56.7864 52.1229H54.9401L58.4331 46.4003H60.2295L63.7225 52.1229H61.8263L61.1277 50.8757ZM60.5788 49.8852L59.3313 47.6842L58.0838 49.8852H60.5788Z" fill="white"/>
<path d="M64.8704 46.3635H68.4133C69.2616 46.3635 70.0101 46.4736 70.6588 46.7304C71.3075 46.9505 71.8065 47.3173 72.1558 47.7208C72.5051 48.161 72.7047 48.6379 72.7047 49.2248C72.7047 49.8117 72.5051 50.2886 72.1558 50.7288C71.8065 51.169 71.3075 51.4992 70.6588 51.7192C70.0101 51.9393 69.2616 52.0861 68.4133 52.0861H64.8704V46.3635ZM68.3135 51.0223C69.1119 51.0223 69.7107 50.8755 70.1598 50.5454C70.6089 50.2153 70.8584 49.7751 70.8584 49.2615C70.8584 48.7112 70.6089 48.2711 70.1598 47.9776C69.7107 47.6474 69.062 47.5007 68.3135 47.5007H66.6668V51.059H68.3135V51.0223Z" fill="white"/>
<path d="M80.4391 51.059V52.1228H74.4011V46.3635H80.2894V47.4273H76.1975V48.6746H79.8403V49.7017H76.1975V51.059H80.4391Z" fill="white"/>
<path d="M89.3215 52.1228V48.6746L87.026 51.4991H86.2276L83.9322 48.7479V52.1228H82.2356V46.3635H83.7326L86.6268 49.9218L89.5211 46.3635H91.0181V52.1228H89.3215Z" fill="white"/>
<path d="M96.9561 50.0685V52.1228H95.1596V50.0685L92.1157 46.3635H94.0618L96.1577 48.9313L98.2036 46.3635H100L96.9561 50.0685Z" fill="white"/>
</svg>
